<svg width="186" height="42" viewBox="0 0 186 42" fill="none" xmlns="http://www.w3.org/2000/svg">
<path d="M39.5615 33V8.07692H45.2385L53.5462 32.1H51.6769L59.9154 8.07692H65.6615V33H62.0269V9.56538H62.5808L54.55 33H50.4654L42.4346 9.77308H42.9885V33H39.5615ZM78.4465 33.3462C76.6465 33.3462 75.0657 32.9538 73.7042 32.1692C72.3427 31.3615 71.2811 30.2654 70.5196 28.8808C69.7581 27.4731 69.3773 25.8808 69.3773 24.1038C69.3773 22.3038 69.7581 20.7231 70.5196 19.3615C71.3042 18 72.3657 16.9385 73.7042 16.1769C75.0657 15.3923 76.6465 15 78.4465 15C80.2696 15 81.8619 15.3923 83.2234 16.1769C84.585 16.9385 85.635 18 86.3734 19.3615C87.135 20.7231 87.5157 22.3038 87.5157 24.1038C87.5157 25.8808 87.135 27.4731 86.3734 28.8808C85.635 30.2654 84.585 31.3615 83.2234 32.1692C81.8619 32.9538 80.2696 33.3462 78.4465 33.3462ZM78.4465 30.4038C79.5311 30.4038 80.4657 30.1385 81.2504 29.6077C82.0581 29.0769 82.6927 28.3385 83.1542 27.3923C83.6157 26.4462 83.8465 25.3385 83.8465 24.0692C83.8465 22.1769 83.3388 20.6885 82.3234 19.6038C81.3311 18.4962 80.0388 17.9423 78.4465 17.9423C76.8773 17.9423 75.585 18.4962 74.5696 19.6038C73.5773 20.7115 73.0811 22.2 73.0811 24.0692C73.0811 25.3385 73.3004 26.4462 73.7388 27.3923C74.2004 28.3385 74.835 29.0769 75.6427 29.6077C76.4734 30.1385 77.4081 30.4038 78.4465 30.4038ZM98.898 33.3462C97.098 33.3462 95.5172 32.9538 94.1557 32.1692C92.7941 31.3615 91.7326 30.2654 90.9711 28.8808C90.2095 27.4731 89.8288 25.8808 89.8288 24.1038C89.8288 22.3038 90.2095 20.7231 90.9711 19.3615C91.7557 18 92.8172 16.9385 94.1557 16.1769C95.5172 15.3923 97.098 15 98.898 15C100.721 15 102.313 15.3923 103.675 16.1769C105.036 16.9385 106.086 18 106.825 19.3615C107.586 20.7231 107.967 22.3038 107.967 24.1038C107.967 25.8808 107.586 27.4731 106.825 28.8808C106.086 30.2654 105.036 31.3615 103.675 32.1692C102.313 32.9538 100.721 33.3462 98.898 33.3462ZM98.898 30.4038C99.9826 30.4038 100.917 30.1385 101.702 29.6077C102.51 29.0769 103.144 28.3385 103.606 27.3923C104.067 26.4462 104.298 25.3385 104.298 24.0692C104.298 22.1769 103.79 20.6885 102.775 19.6038C101.783 18.4962 100.49 17.9423 98.898 17.9423C97.3288 17.9423 96.0365 18.4962 95.0211 19.6038C94.0288 20.7115 93.5326 22.2 93.5326 24.0692C93.5326 25.3385 93.7518 26.4462 94.1903 27.3923C94.6518 28.3385 95.2865 29.0769 96.0941 29.6077C96.9249 30.1385 97.8595 30.4038 98.898 30.4038ZM111.665 33V15.3462H115.092V19.5H115.265V33H111.665ZM124.196 33V21.6462C124.196 20.4231 123.884 19.5115 123.261 18.9115C122.661 18.3115 121.761 18.0115 120.561 18.0115C119.523 18.0115 118.599 18.2423 117.792 18.7038C117.007 19.1654 116.384 19.8 115.923 20.6077C115.484 21.4154 115.265 22.3731 115.265 23.4808L114.815 19.2577C115.392 17.9423 116.28 16.9038 117.48 16.1423C118.68 15.3808 120.076 15 121.669 15C123.561 15 125.049 15.5308 126.134 16.5923C127.219 17.6538 127.761 19.0615 127.761 20.8154V33H124.196ZM135.088 33V30.1615H142.53C143.938 30.1615 145.034 29.7808 145.818 29.0192C146.626 28.2577 147.03 27.2192 147.03 25.9038C147.03 24.5192 146.603 23.4115 145.749 22.5808C144.918 21.75 143.776 21.3346 142.322 21.3346H135.088V18.5654H141.976C143.384 18.5654 144.468 18.2308 145.23 17.5615C146.014 16.8692 146.407 15.8885 146.407 14.6192C146.407 13.4192 146.038 12.5077 145.299 11.8846C144.584 11.2385 143.522 10.9154 142.114 10.9154H135.088V8.07692H142.668C144.93 8.07692 146.73 8.63077 148.068 9.73846C149.407 10.8231 150.076 12.3115 150.076 14.2038C150.076 15.4038 149.799 16.4654 149.245 17.3885C148.714 18.2885 147.976 18.9923 147.03 19.5C146.084 19.9846 145.011 20.2269 143.811 20.2269L143.984 19.5C145.276 19.5 146.43 19.8 147.445 20.4C148.461 20.9769 149.268 21.7731 149.868 22.7885C150.468 23.8038 150.768 24.9808 150.768 26.3192C150.768 27.6346 150.445 28.8 149.799 29.8154C149.176 30.8308 148.288 31.6154 147.134 32.1692C145.98 32.7231 144.641 33 143.118 33H135.088ZM132.388 33V8.07692H136.057V33H132.388ZM162.179 33.3462C160.379 33.3462 158.798 32.9538 157.437 32.1692C156.075 31.3615 155.014 30.2654 154.252 28.8808C153.491 27.4731 153.11 25.8808 153.11 24.1038C153.11 22.3038 153.491 20.7231 154.252 19.3615C155.037 18 156.098 16.9385 157.437 16.1769C158.798 15.3923 160.379 15 162.179 15C164.002 15 165.595 15.3923 166.956 16.1769C168.318 16.9385 169.368 18 170.106 19.3615C170.868 20.7231 171.248 22.3038 171.248 24.1038C171.248 25.8808 170.868 27.4731 170.106 28.8808C169.368 30.2654 168.318 31.3615 166.956 32.1692C165.595 32.9538 164.002 33.3462 162.179 33.3462ZM162.179 30.4038C163.264 30.4038 164.198 30.1385 164.983 29.6077C165.791 29.0769 166.425 28.3385 166.887 27.3923C167.348 26.4462 167.579 25.3385 167.579 24.0692C167.579 22.1769 167.072 20.6885 166.056 19.6038C165.064 18.4962 163.772 17.9423 162.179 17.9423C160.61 17.9423 159.318 18.4962 158.302 19.6038C157.31 20.7115 156.814 22.2 156.814 24.0692C156.814 25.3385 157.033 26.4462 157.472 27.3923C157.933 28.3385 158.568 29.0769 159.375 29.6077C160.206 30.1385 161.141 30.4038 162.179 30.4038ZM182.187 33.3462C180.133 33.3462 178.622 32.8731 177.653 31.9269C176.706 30.9577 176.233 29.5385 176.233 27.6692V11.2962L179.799 9.94615V27.7038C179.799 28.6269 180.041 29.3077 180.526 29.7462C181.01 30.1846 181.795 30.4038 182.88 30.4038C183.295 30.4038 183.664 30.3692 183.987 30.3C184.31 30.2308 184.587 30.15 184.818 30.0577V32.9654C184.564 33.0808 184.206 33.1731 183.745 33.2423C183.283 33.3115 182.764 33.3462 182.187 33.3462ZM172.703 18.2192V15.3462H184.818V18.2192H172.703Z" fill="#E6EEFD"/>
<path fill-rule="evenodd" clip-rule="evenodd" d="M10.7817 7.32544C11.1002 7.64393 11.1949 8.1232 11.0215 8.53888C10.3632 10.1165 9.99903 11.8488 9.99903 13.6689C9.99903 21.032 15.968 27.001 23.3311 27.001C25.1512 27.001 26.8835 26.6369 28.4611 25.9785C28.8768 25.8051 29.3561 25.8998 29.6746 26.2183C29.9931 26.5367 30.0877 27.016 29.9143 27.4317C27.5704 33.0488 22.025 37 15.554 37C6.96378 37 0 30.0362 0 21.446C0 14.975 3.95124 9.42958 9.56831 7.08572C9.98399 6.91226 10.4633 7.00695 10.7817 7.32544Z" fill="#3265F6"/>
<path d="M21.4748 11.4193C21.6552 10.9318 22.3448 10.9318 22.5252 11.4193L23.8013 14.8679C23.858 15.0212 23.9788 15.142 24.1321 15.1987L27.5807 16.4748C28.0682 16.6552 28.0682 17.3448 27.5807 17.5252L24.1321 18.8013C23.9788 18.858 23.858 18.9788 23.8013 19.1321L22.5252 22.5807C22.3448 23.0682 21.6552 23.0682 21.4748 22.5807L20.1987 19.1321C20.142 18.9788 20.0212 18.858 19.8679 18.8013L16.4193 17.5252C15.9318 17.3448 15.9318 16.6552 16.4193 16.4748L19.8679 15.1987C20.0212 15.142 20.142 15.0212 20.1987 14.8679L21.4748 11.4193Z" fill="#EED554"/>
<path d="M27.6999 5.81104C27.803 5.53244 28.197 5.53244 28.3001 5.81104L29.0293 7.78164C29.0617 7.86923 29.1308 7.93829 29.2184 7.9707L31.189 8.69989C31.4676 8.80298 31.4676 9.19702 31.189 9.30011L29.2184 10.0293C29.1308 10.0617 29.0617 10.1308 29.0293 10.2184L28.3001 12.189C28.197 12.4676 27.803 12.4676 27.6999 12.189L26.9707 10.2184C26.9383 10.1308 26.8692 10.0617 26.7816 10.0293L24.811 9.30011C24.5324 9.19702 24.5324 8.80298 24.811 8.69989L26.7816 7.9707C26.8692 7.93829 26.9383 7.86923 26.9707 7.78164L27.6999 5.81104Z" fill="#EED554"/>
</svg>
